<svg width="500" height="523" viewBox="0 0 500 523" fill="none" xmlns="http://www.w3.org/2000/svg">
<path fill-rule="evenodd" clip-rule="evenodd" d="M390.301 409.479L500 522.758H184.179V196.98L300.824 317.322C315.743 302.362 326.028 283.183 330.381 262.206C334.734 241.229 332.961 219.393 325.285 199.454C317.608 179.514 304.373 162.364 287.249 150.167C270.124 137.97 249.878 131.272 229.064 130.919C201.634 131.241 175.42 142.63 156.046 162.642C136.672 182.653 125.682 209.694 125.434 237.96V522.536H0.000319469V239.227C-0.101006 176.295 23.9044 115.865 66.7994 71.0694C109.694 26.2742 168.012 0.734204 229.079 0C274.792 0.762817 319.277 15.3703 356.991 42.0024C394.705 68.6344 423.98 106.114 441.168 149.77C458.357 193.426 462.699 241.329 453.654 287.511C444.609 333.692 422.576 376.11 390.301 409.479V409.479Z" fill="#00E5FF"/>
</svg>
